<svg width="173" height="150" viewBox="0 0 173 150" fill="none" xmlns="http://www.w3.org/2000/svg">
<g filter="url(#filter0_d_212_2536)">
<path d="M86.1869 20.4541L86.1758 22.2233" stroke="#711E7D" stroke-width="2"/>
<path d="M86.0854 134.389L86.0835 136.116" stroke="#711E7D" stroke-width="2"/>
<path d="M89.1932 37.3142C88.6511 37.8513 88.1399 38.415 87.6595 39.0054C86.0648 40.9713 84.607 42.8575 83.4975 45.1576C83.3642 45.4342 83.1419 45.4695 83.0289 45.1465C82.3788 43.2882 81.6342 41.3445 80.4358 39.8519C79.706 38.9441 78.8632 37.9973 77.8111 37.4515C77.4802 37.2808 77.3666 37.3742 77.4703 37.7319C77.7803 38.7987 78.0328 39.9423 78.2279 41.1626C78.4057 42.2671 78.3501 43.4181 78.3483 44.5524C78.3483 44.7616 78.2785 44.7882 78.139 44.6322C76.9684 43.3123 75.8237 41.7585 74.6475 40.6186C73.3713 39.386 68.9352 36.4342 66.7273 36.7999C66.3568 36.8606 66.263 37.0338 66.4457 37.3197C67.1255 38.3761 68.0609 38.9274 68.774 39.9076C69.8533 41.3915 70.6244 42.6762 71.0875 43.7616C71.9988 45.8952 72.5267 47.2071 72.6711 47.6972C72.9613 48.6848 73.1126 49.3241 73.125 49.6149C73.1657 50.6341 71.6061 48.5178 71.4931 48.4212C70.7991 47.8296 70.1083 47.2331 69.4205 46.6316C66.4013 43.9942 62.9116 43.2022 58.9515 44.2554C57.3123 44.6916 55.1396 45.5011 54.1635 46.9788C54.1289 47.0308 54.1425 47.0574 54.2042 47.0586C56.9733 47.1106 58.9979 48.0425 61.8559 49.4794C62.2967 49.7022 62.8345 50.139 63.4692 50.79C64.0434 51.3785 64.9676 52.9992 65.0677 53.8105C65.0692 53.8222 65.0682 53.8342 65.0648 53.8456C65.0613 53.857 65.0555 53.8676 65.0477 53.8767C65.0398 53.8858 65.0301 53.8932 65.0192 53.8984C65.0083 53.9036 64.9964 53.9065 64.9843 53.907C64.1675 53.9404 63.1673 53.8235 62.5486 53.8272C60.5976 53.8408 58.7725 54.3371 57.0734 55.316C56.9808 55.3692 56.9869 55.4039 57.0919 55.42C58.8219 55.6725 60.2314 56.3148 61.817 56.985C63.0487 57.5048 64.0841 58.5648 65.0177 59.493C65.5301 60.0029 65.4332 60.1836 64.7269 60.0351C62.9265 59.6545 60.8038 59.2647 58.8756 59.2888C55.8194 59.3296 52.652 60.139 49.957 61.5926C47.5405 62.8971 46.0019 63.7028 45.3412 64.0097C44.6176 64.3451 43.7934 64.5048 42.8685 64.4887C42.8057 64.4875 42.7464 64.503 42.6981 64.5332C41.0996 65.5376 44.3929 66.2653 45.0949 66.4027C46.978 66.7727 48.8753 66.9491 50.7868 66.9317C52.0982 66.9188 53.3929 66.6291 54.5951 66.2337C54.9779 66.1063 55.0927 66.23 54.9396 66.605C54.0968 68.6712 52.9966 70.0673 51.5759 71.8179C51.1919 72.2919 50.7936 72.7102 50.3812 73.0728C48.4709 74.7572 46.4211 76.2529 44.2317 77.5598C43.5927 77.9423 42.7018 78.2133 41.9516 78.579C41.0304 79.0246 40.1667 79.3179 39.3603 79.459C38.4823 79.6131 37.6877 79.8173 36.8764 79.8451C36.1726 79.8674 35.5607 79.9175 35.0409 79.9955C34.579 80.0648 34.5519 80.2139 34.9594 80.4429C36.2856 81.191 37.5081 81.8853 39.001 82.2436C41.1348 82.7579 42.5814 83.0085 44.6337 82.8563C45.4968 82.7913 46.4433 82.4608 47.3917 82.368C48.0122 82.3067 48.5456 82.136 49.1328 82.0004C49.1764 81.9903 49.2223 81.9968 49.2616 82.0187C49.3009 82.0407 49.3309 82.0765 49.3458 82.1192C49.7125 83.1712 50.049 84.235 50.3553 85.3105C50.5034 85.8321 50.4645 86.3222 50.5183 86.8643C50.659 88.303 50.459 89.6044 49.6644 90.8074C48.8086 92.1044 48.248 92.8556 47.9825 93.0611C46.9144 93.8841 45.7623 94.5605 44.5262 95.0902C44.495 95.1033 44.4679 95.1216 44.4475 95.1434C44.4271 95.1652 44.414 95.1897 44.4095 95.2145C44.3262 95.6527 47.6454 95.0735 47.9399 94.9713C49.2254 94.5221 50.1793 93.6217 51.4722 92.5951C51.8222 92.3185 52.0538 91.9862 52.2742 91.6261C52.3903 91.4367 52.4656 91.4522 52.5002 91.6725C52.7687 93.3971 52.5557 95.6861 52.1482 96.7702C51.2777 99.0883 50.5936 100.662 50.0959 101.491C49.6773 102.192 48.742 103.341 47.2898 104.94C47.2711 104.961 47.2576 104.985 47.2515 105.007C47.2454 105.029 47.2472 105.048 47.2565 105.061C47.3694 105.221 49.7033 103.823 49.9015 103.678C51.6981 102.343 52.652 100.543 53.6782 98.4132C53.9462 97.8575 54.1184 97.2888 54.195 96.7071C54.2258 96.4744 54.3049 96.4565 54.4321 96.6533C55.1229 97.717 55.6916 98.7195 56.0694 99.9763C56.3856 101.026 56.685 102.082 56.9678 103.145C57.1049 103.654 57.4994 103.437 57.6272 103.082C58.21 101.45 58.7706 99.8098 59.309 98.1626C59.3745 97.9621 59.4523 97.9324 59.5424 98.0735C59.9252 98.6749 60.2179 99.3185 60.4204 100.004C60.9575 101.821 61.4545 103.649 61.9114 105.488C62.4875 107.803 62.4449 109.923 61.9781 112.186C61.7262 113.408 61.1872 114.653 60.7204 115.88C60.5204 116.406 60.7013 116.656 61.2632 116.629C64.2564 116.487 65.9419 114.761 66.7291 111.934C67.4089 109.489 67.1255 106.999 66.3809 104.599C66.1179 103.756 65.9679 102.811 65.6585 102.013C65.1473 100.684 64.7639 99.3655 64.3323 98.1254C63.9137 96.9188 63.5908 95.6855 63.3636 94.4256C63.2099 93.579 63.2469 92.7492 63.2691 91.8711C63.2778 91.527 63.4507 91.3222 63.7878 91.2566C64.4083 91.1378 65.3585 91.704 65.9049 92.027C66.5624 92.4169 67.3182 92.5803 67.37 91.5202C67.4774 89.3371 67.1922 86.8179 66.8051 84.321C66.3013 81.0685 66.5013 77.4559 66.5661 74.1644C66.581 73.4577 66.6538 72.8736 66.7847 72.4119C67.1607 71.0994 67.4274 69.605 68.0553 68.4763C68.9241 66.9187 71.0578 64.4218 72.9508 64.1601C75.77 63.7702 78.5798 64.2121 81.3156 64.9008C83.3142 65.4039 85.8277 66.4305 88.1208 67.1025" stroke="white" stroke-width="2"/>
<path d="M88.1206 67.1027C88.7405 67.1498 89.3122 67.0241 89.8358 66.7259C91.1472 65.9796 92.603 65.6324 94.02 65.1535C96.0186 64.4777 97.7264 64.1603 99.7157 63.9932C100.755 63.9053 101.635 63.9468 102.353 64.1176C103.637 64.422 105.347 65.0848 105.88 66.3973C106.534 68.0087 106.839 69.3564 107.323 71.3874C107.886 73.7475 108.265 76.1368 108.46 78.5551C108.577 80.005 108.829 81.3991 108.951 82.8824C109.123 84.9598 109.486 86.9313 109.688 88.8564C109.76 89.5433 109.975 90.2432 110.075 90.9524C110.188 91.7525 110.37 92.56 111.402 92.0217C112.026 91.6949 112.629 91.2314 113.209 90.6312C113.614 90.2116 114.095 90.0279 114.65 90.0798C114.963 90.1083 115.118 90.2797 115.115 90.5941C115.112 91.1807 115.173 91.7432 115.002 92.3131C113.972 95.7383 112.748 99.1522 112.126 102.678C111.983 103.489 112.022 104.374 111.926 105.236C111.853 105.873 111.905 106.403 111.965 107.011C112.076 108.16 111.885 109.519 112.298 110.541C112.601 111.293 113.138 112.081 113.909 112.907C114.632 113.677 115.654 114.019 116.629 114.347C117.288 114.57 117.923 114.46 118.62 114.527C119.256 114.588 119.73 114.595 120.042 114.548C121.55 114.323 122.993 113.731 123.891 112.437C123.914 112.404 123.929 112.366 123.935 112.326C123.94 112.287 123.936 112.246 123.923 112.208C123.911 112.17 123.889 112.135 123.86 112.107C123.831 112.079 123.796 112.058 123.758 112.045C122.515 111.652 121.176 110.946 120.394 109.836C119.166 108.089 118.494 105.908 118.121 103.819C118.066 103.507 118.26 103.298 118.536 103.55C119.498 104.43 120.535 105.088 121.646 105.525C124.464 106.632 127.838 103.554 129.276 101.519C129.291 101.498 129.297 101.472 129.294 101.447C129.29 101.422 129.277 101.4 129.257 101.386C128.57 100.892 127.475 102.204 126.425 101.425C124.225 99.789 123.723 96.7574 122.958 93.6999C122.642 92.4375 122.478 91.1708 122.467 89.8998C122.467 89.8771 122.472 89.8548 122.483 89.8348C122.493 89.8148 122.508 89.7977 122.527 89.7851C122.545 89.7726 122.567 89.765 122.589 89.7629C122.611 89.7609 122.634 89.7645 122.654 89.7735C125.71 91.0972 129.274 88.2958 131.83 86.7865C132.286 86.5155 132.604 86.1795 132.904 85.7748C133.015 85.6238 132.967 85.5712 132.758 85.617C131.472 85.8936 130.904 85.3626 129.635 84.5551C128.924 84.1021 128.266 83.534 127.661 82.8509C126.173 81.1671 125.114 79.7061 124.136 77.5897C122.987 75.1009 121.72 72.7327 120.335 70.4852C120.193 70.2537 120.256 70.1603 120.524 70.2048C121.835 70.422 123.067 70.7376 124.399 70.771C125.54 70.8007 127.022 70.5928 128.127 70.3645C129.738 70.0316 131.058 69.1863 132.087 67.8286C132.202 67.6788 132.241 67.492 132.202 67.268C132.198 67.2437 132.184 67.2222 132.163 67.2079C132.143 67.1937 132.118 67.1879 132.093 67.1918C129.913 67.5464 126.923 66.1819 124.928 65.1126C123.712 64.4616 122.487 63.8286 121.252 63.2135C120.531 62.8533 119.753 62.3892 118.985 62.0068C118.963 61.996 118.944 61.9801 118.93 61.9605C118.916 61.9408 118.907 61.918 118.904 61.894C118.901 61.8701 118.903 61.8457 118.911 61.8229C118.92 61.8002 118.933 61.7798 118.951 61.7636C120.898 59.9944 121.085 58.047 121.648 55.6448C121.736 55.271 121.593 55.0545 121.218 54.9951C121.191 54.991 121.163 54.9944 121.136 55.0047C121.11 55.0151 121.086 55.0322 121.067 55.0545C119.616 56.6918 117.745 57.5384 115.66 58.0489C114.626 58.3014 113.293 58.7413 112.244 58.6207C112.223 58.6183 112.203 58.611 112.185 58.5994C112.167 58.5878 112.152 58.5722 112.142 58.5538C112.131 58.5355 112.124 58.5148 112.123 58.4936C112.121 58.4723 112.125 58.451 112.133 58.4313C112.3 58.0316 112.514 57.6522 112.776 57.2933C113.976 55.6498 115.31 54.1176 116.777 52.6968C116.82 52.6547 116.811 52.6306 116.749 52.6244C115.356 52.4852 113.932 52.6894 112.541 52.8026C111.268 52.9066 110.209 53.1108 109.051 53.4319C108.781 53.5062 108.713 53.4202 108.847 53.1739C109.233 52.4629 109.918 51.8298 110.279 51.3156C110.968 50.3379 111.489 49.3564 111.842 48.3713C112.083 47.6993 112.663 44.8719 112.194 44.2463C112.177 44.2233 112.155 44.2049 112.129 44.1925C112.103 44.1802 112.075 44.1743 112.046 44.1754C112.018 44.1765 111.99 44.1845 111.965 44.1988C111.941 44.2131 111.92 44.2332 111.905 44.2574C110.083 47.1813 106.719 49.6912 103.42 51.0668C101.925 51.6925 99.9546 52.1621 98.2228 52.6968C96.578 53.2054 98.5562 51.5532 98.6914 51.3694C100.358 49.1157 102.033 46.7636 101.788 43.8564C101.772 43.6708 101.691 43.6355 101.544 43.7506C100.616 44.4765 99.699 45.5087 98.9525 46.1194C97.3226 47.4561 95.4993 48.466 93.4829 49.1491C92.5222 49.4734 91.488 49.5347 90.3804 49.3329C90.3604 49.3292 90.3416 49.3205 90.3258 49.3078C90.3099 49.2951 90.2974 49.2787 90.2894 49.26C90.2813 49.2413 90.278 49.2209 90.2796 49.2006C90.2813 49.1803 90.2879 49.1607 90.2989 49.1436C90.4933 48.8428 90.7564 48.5606 90.9249 48.2488C93.118 44.1535 95.1888 40.862 94.9572 36.3472C94.9109 35.4542 93.5255 30.3713 92.6234 29.8979C91.9492 29.5433 91.8029 30.3286 91.8325 30.8298C91.9714 33.3063 90.886 35.5582 89.1931 37.3144" stroke="white" stroke-width="2"/>
<path d="M88.1209 67.1025C88.1493 66.9924 88.2104 66.9132 88.3042 66.8649C88.3277 66.8525 88.3259 66.8457 88.2987 66.8445C87.9641 66.8222 87.9511 66.7999 88.2598 66.7776C88.2721 66.7765 88.2835 66.7734 88.2934 66.7686C88.3033 66.7638 88.3114 66.7574 88.3172 66.7498C88.3469 66.7139 88.3648 66.6706 88.3709 66.6198C88.3743 66.5935 88.3842 66.5689 88.3995 66.5485C88.4149 66.5282 88.4351 66.5131 88.458 66.5047C88.5629 66.4664 88.6309 66.3983 88.6617 66.3005" stroke="white" stroke-width="2"/>
<path d="M89.4842 39.2672C89.2051 38.7684 89.1767 38.24 89.399 37.6818C89.4105 37.6523 89.4158 37.6217 89.4145 37.5924C89.4132 37.5631 89.4054 37.5358 89.3915 37.5128C89.3397 37.4287 89.2736 37.3625 89.1934 37.3142" stroke="#711E7D" stroke-width="2"/>
<path d="M91.8198 73.6948C93.572 72.1577 96.8208 71.2851 98.6342 73.3346C100.738 75.7127 100.968 79.5723 102.07 82.2344C102.848 84.115 106.328 83.7362 104.949 82.1583C104.93 82.1373 104.907 82.1206 104.88 82.1094C104.853 82.0981 104.824 82.0927 104.795 82.0933L103.932 82.1026C103.654 82.1051 103.472 81.9677 103.387 81.6904C102.844 79.9231 102.29 78.1595 101.726 76.3996C100.768 73.4145 99.464 71.3817 96.0948 71.0029C93.1238 70.6688 90.2398 73.3495 88.8747 75.8947C88.813 76.0098 88.8451 76.0518 88.971 76.0209C89.9657 75.7814 91.1141 74.3111 91.8198 73.6948Z" stroke="white" stroke-width="2"/>
<path d="M68.7907 86.0068C69.426 86.328 69.7668 86.0124 70.0558 85.4443C71.1289 83.3391 71.9117 81.1275 72.4044 78.8094C72.4104 78.7834 72.4245 78.7598 72.4447 78.7419C72.4649 78.7239 72.4903 78.7125 72.5174 78.7092C73.6671 78.5706 74.8192 78.4579 75.9737 78.3713C79.104 78.1355 82.9178 76.9029 84.37 73.7933C84.5144 73.4827 84.428 73.3917 84.1107 73.5204C83.8958 73.6071 83.6791 73.7482 83.4605 73.9437C81.7676 75.4585 80.245 76.0285 77.8075 76.565C75.8311 76.9994 73.7066 76.6894 72.0062 76.9493C71.4629 77.0322 71.1566 77.3447 71.0875 77.8868C70.743 80.5972 69.9132 83.0854 68.5981 85.3515C68.4314 85.6386 68.4956 85.8571 68.7907 86.0068Z" stroke="white" stroke-width="2"/>
<path d="M89.4099 87.4844C88.2899 89.7802 88.3097 92.0722 89.4692 94.3606" stroke="white" stroke-width="2"/>
<path d="M89.4694 94.3605C92.4775 100.323 101.07 100.186 104.439 94.6817C104.474 94.6248 104.458 94.5975 104.393 94.6L101.942 94.6817C101.887 94.6829 101.829 94.7095 101.781 94.756C100.22 96.272 98.3337 96.8977 96.1209 96.6328C91.618 96.0926 88.9212 91.0821 92.0033 87.3098C94.3371 84.4527 98.8455 84.2114 101.585 86.7937C101.907 87.0982 102.218 87.5289 102.544 87.8909C102.562 87.9108 102.586 87.9269 102.613 87.9381C102.64 87.9492 102.67 87.9553 102.702 87.9558L104.793 87.9948C104.809 87.9948 104.826 87.9909 104.84 87.9832C104.854 87.9756 104.867 87.9646 104.875 87.9512C104.884 87.9379 104.89 87.9226 104.891 87.9068C104.892 87.8911 104.889 87.8753 104.882 87.8612C103.383 84.9268 101.036 83.2826 97.8416 82.9286C94.3705 82.5443 90.9846 84.3729 89.4102 87.4843" stroke="white" stroke-width="2"/>
<path d="M89.4694 94.3606C89.4781 92.5413 89.4768 90.7276 89.4657 88.9194C89.4639 88.5091 89.7028 87.9893 89.4102 87.4844" fill="#D9D9D9"/>
<path d="M70.9059 87.5884C67.6663 92.8329 71.4153 99.0167 77.2406 99.6033C81.034 99.9857 84.3995 98.0476 86.0462 94.5482C86.0507 94.5393 86.0529 94.5293 86.0523 94.5192C86.0518 94.5092 86.0487 94.4995 86.0433 94.491C86.0378 94.4826 86.0303 94.4757 86.0214 94.4711C86.0125 94.4664 86.0025 94.4642 85.9925 94.4647L83.8179 94.5037C83.7925 94.5043 83.7675 94.511 83.7447 94.5232C83.7219 94.5355 83.7019 94.5529 83.6864 94.5742C80.5635 99.0204 73.6695 98.417 71.9747 93.0185C71.9621 92.9782 71.9591 92.9355 71.966 92.8938C71.973 92.8522 71.9896 92.8128 72.0145 92.779C72.0395 92.7451 72.072 92.7177 72.1095 92.699C72.147 92.6803 72.1884 92.6708 72.2303 92.6714C76.4954 92.7073 80.7426 92.7617 84.9719 92.8347C85.1719 92.8384 85.6634 92.7896 86.4463 92.6881C86.4725 92.6843 86.4965 92.6719 86.5144 92.653C86.5323 92.6341 86.5429 92.6097 86.5445 92.5841C86.8019 88.6837 84.7774 85.6281 81.2507 84.2691C77.5648 82.8508 73.0175 84.1726 70.9059 87.5884Z" stroke="white" stroke-width="2"/>
<path d="M88.73 108.091L88.8467 108.126C88.8667 108.132 88.8865 108.149 88.9038 108.174C88.9212 108.199 88.9354 108.231 88.9448 108.267C89.1782 109.192 89.6913 109.872 90.4841 110.309C91.0842 110.64 91.6825 110.46 92.2548 110.185C92.3647 110.132 92.4067 110.165 92.3808 110.285C92.0603 111.742 92.8642 112.305 94.2349 111.889C94.4497 111.823 94.5139 111.895 94.4275 112.103C94.2929 112.429 94.2552 112.809 94.3145 113.242C94.3229 113.305 94.3509 113.362 94.3942 113.404C94.9072 113.898 95.6685 113.567 96.2705 113.421C96.3047 113.412 96.3403 113.412 96.3745 113.421C96.4086 113.429 96.4402 113.446 96.4665 113.469C96.4929 113.493 96.5133 113.522 96.5259 113.555C96.5385 113.588 96.543 113.623 96.5391 113.658C96.4076 114.778 97.3522 114.72 97.9764 114.226C99.0618 113.369 99.9108 112.307 100.523 111.043C100.55 110.986 100.59 110.939 100.64 110.909C100.942 110.72 101.273 110.602 101.633 110.556C101.661 110.552 101.69 110.558 101.714 110.571C101.738 110.584 101.756 110.604 101.764 110.629C101.824 110.788 100.816 112.481 100.679 112.838C100.542 113.19 100.634 113.466 100.955 113.666C102.194 114.436 103.526 112.875 104.109 111.917C104.137 111.872 104.177 111.836 104.226 111.816C104.274 111.796 104.327 111.791 104.378 111.804L105.489 112.082C105.528 112.092 105.565 112.11 105.597 112.135C105.629 112.16 105.655 112.192 105.674 112.228C105.694 112.263 105.705 112.303 105.709 112.344C105.712 112.385 105.708 112.426 105.695 112.465C105.503 113.045 105.102 113.218 104.491 112.984C104.481 112.98 104.47 112.979 104.459 112.98C104.448 112.981 104.438 112.984 104.429 112.99C104.42 112.996 104.413 113.003 104.408 113.012C104.402 113.021 104.4 113.032 104.4 113.042C104.391 114.258 106.606 113.549 106.224 112.192C106.052 111.575 105.289 111.438 104.741 111.403C104.708 111.401 104.677 111.391 104.649 111.375C104.621 111.358 104.597 111.335 104.579 111.306C104.561 111.278 104.549 111.246 104.544 111.212C104.539 111.178 104.542 111.143 104.552 111.109L104.741 110.454C104.749 110.426 104.751 110.396 104.747 110.367C104.743 110.337 104.732 110.309 104.717 110.283C104.206 109.446 103.502 110.688 103.826 111.267C103.97 111.525 103.931 111.749 103.709 111.941C103.157 112.418 102.44 113.116 101.725 113.283C101.696 113.29 101.667 113.289 101.639 113.28C101.611 113.272 101.586 113.257 101.566 113.237C101.382 113.045 101.362 112.847 101.505 112.643C102.238 111.592 102.657 110.929 102.761 110.655C103.278 109.275 101.422 110.153 101.027 110.265C101 110.272 100.971 110.274 100.942 110.27C100.913 110.266 100.885 110.256 100.859 110.241C100.349 109.951 99.2415 110.257 100.042 110.898C100.083 110.931 100.113 110.977 100.125 111.03C100.137 111.082 100.131 111.137 100.108 111.185C99.6947 112.051 98.9859 112.645 97.982 112.97C97.9558 112.978 97.9281 112.98 97.901 112.976C97.874 112.972 97.8482 112.961 97.8258 112.945C97.8033 112.93 97.7849 112.909 97.7718 112.885C97.7587 112.86 97.7514 112.834 97.7504 112.806C97.7152 112.038 99.0081 110.09 99.4452 109.403C99.8898 108.705 99.3952 108.108 98.8859 108.993C98.2882 110.033 97.6961 111.077 97.1096 112.125C96.97 112.375 96.807 112.559 96.6206 112.676C96.3223 112.864 95.2332 113.378 95.0628 112.916C95.034 112.837 95.0236 112.753 95.0322 112.671C95.0409 112.589 95.0685 112.51 95.1128 112.44L97.9931 107.981C98.067 107.867 98.0967 107.73 98.0764 107.599C98.0641 107.518 98.0313 107.466 97.9783 107.443C97.9603 107.434 97.9354 107.434 97.9068 107.443C97.8782 107.451 97.847 107.467 97.8171 107.489C97.7158 107.565 97.601 107.599 97.4726 107.591C97.4469 107.59 97.4217 107.58 97.4002 107.563C97.3787 107.545 97.362 107.521 97.3522 107.493C96.9003 106.175 95.3388 104.727 93.8422 105.445C93.3273 105.694 93.1068 106.16 93.0402 106.706C93.0142 106.92 93.0963 107.078 93.2865 107.179L93.9033 107.506C93.929 107.52 93.9512 107.539 93.9682 107.563C93.9851 107.587 93.9964 107.614 94.0012 107.643C94.0061 107.673 94.0042 107.703 93.9959 107.732C93.9876 107.761 93.9731 107.788 93.9533 107.81L92.4808 109.509C92.4386 109.56 92.3875 109.595 92.3345 109.611C91.3546 109.899 90.1636 109.487 90.0117 108.33C89.8129 106.822 90.176 105.59 91.1009 104.634C92.2252 103.472 93.7014 103.151 94.9183 104.413C94.9371 104.432 94.9617 104.445 94.9873 104.447C95.013 104.45 95.0379 104.443 95.0573 104.428C95.1919 104.319 95.2122 104.177 95.1184 104.001C94.4294 102.722 93.2032 102.308 91.8547 102.876C90.0469 103.638 89.0294 105.078 88.8022 107.194" stroke="white" stroke-width="2"/>
<path d="M88.8023 107.194L88.5634 107.159C88.5393 107.155 88.5162 107.141 88.497 107.12C88.4778 107.098 88.4635 107.069 88.456 107.036C88.0929 105.505 86.9964 104.237 86.1592 102.932C85.7202 102.249 85.2256 102.694 85.5442 103.398C85.6862 103.71 85.7313 104.102 85.6794 104.575C85.622 105.102 85.1941 106.916 84.4662 106.11C84.1087 105.713 84.0365 104.857 83.6308 104.308C83.6136 104.284 83.5913 104.266 83.5659 104.253C83.5404 104.241 83.5125 104.234 83.4845 104.235C82.7411 104.251 82.3651 104.639 82.3565 105.399C82.3553 105.476 82.3756 105.484 82.4176 105.425L82.7584 104.929C82.8041 104.864 82.8467 104.822 82.8862 104.803C83.4975 104.51 83.4771 105.733 83.5401 106.032C83.6043 106.327 83.7661 106.55 84.0254 106.702C85.3127 107.452 85.948 106.504 86.2666 105.405C86.3864 104.993 86.5599 104.968 86.7871 105.332C87.8669 107.059 88.48 110.174 85.9869 111.015C85.9651 111.022 85.9418 111.025 85.919 111.022C85.8961 111.019 85.8741 111.012 85.8546 111C85.8351 110.988 85.8186 110.971 85.8062 110.952C85.7939 110.933 85.786 110.911 85.7832 110.889C85.5905 109.422 86.2018 108.527 86.5852 107.205C86.6296 107.052 86.5951 107.032 86.4815 107.144C85.5566 108.06 85.0929 109.17 85.0904 110.475C85.0904 111.397 85.4572 112.309 86.5852 111.702C87.841 111.027 88.5016 109.914 88.5671 108.362C88.5696 108.31 88.5938 108.255 88.6356 108.204L88.7301 108.091" stroke="white" stroke-width="2"/>
<path d="M88.8026 107.194C88.7149 107.471 88.6908 107.77 88.7303 108.091" stroke="white" stroke-width="2"/>
<path d="M77.9409 113.907C77.8614 113.865 77.7976 113.798 77.7586 113.716C77.7197 113.635 77.7076 113.543 77.7242 113.454C78.0502 111.683 78.3947 109.926 78.7577 108.182C78.9318 107.343 78.0353 108.134 77.9112 108.241C77.892 108.258 77.8676 108.267 77.8421 108.268C77.8167 108.268 77.7919 108.259 77.7723 108.243C77.337 107.874 76.9166 107.269 76.2498 107.608C74.8235 108.338 74.5124 109.467 74.2086 110.939C74.0197 111.858 73.3992 112.708 72.7194 113.319C72.6717 113.362 72.6142 113.385 72.5582 113.385C72.2656 113.392 71.9779 113.251 71.6951 112.962C71.6697 112.936 71.6511 112.904 71.641 112.869C71.6309 112.834 71.6297 112.797 71.6374 112.761C71.6451 112.726 71.6615 112.692 71.6852 112.665C71.7088 112.637 71.7389 112.615 71.7729 112.602C72.6434 112.268 73.3936 111.436 73.1824 110.417C73.1705 110.358 73.1385 110.305 73.0917 110.267C71.9099 109.305 70.9153 111.423 70.8819 112.292C70.8468 113.233 70.6875 113.747 70.204 114.468C70.1435 114.556 70.1553 114.583 70.2392 114.549C70.4633 114.457 70.9097 113.824 70.9931 113.686C71.0344 113.616 71.0999 113.563 71.1771 113.538C71.2543 113.513 71.3378 113.518 71.4117 113.551C72.5663 114.069 73.3337 113.842 73.714 112.868C73.7684 112.726 73.8616 112.629 73.9937 112.574C74.0164 112.565 74.0419 112.566 74.0648 112.576C74.0877 112.587 74.1061 112.606 74.116 112.63C74.7624 114.213 75.2829 114.033 76.7147 113.489C76.9839 113.387 77.1302 113.48 77.1537 113.768C77.2315 114.707 78.0205 114.921 78.5762 114.113C78.9133 113.622 79.2572 113.117 79.6079 112.598C79.6137 112.59 79.6216 112.583 79.6308 112.578C79.64 112.572 79.6504 112.57 79.6611 112.569C79.6718 112.569 79.6826 112.571 79.6927 112.575C79.7027 112.58 79.7117 112.586 79.719 112.595C81.0564 114.18 83.2883 113.9 84.2033 112.06C84.4256 111.613 84.5738 111.293 84.5015 110.831C84.3422 109.832 83.8347 108.609 82.7623 108.332C82.6931 108.314 82.314 108.306 81.625 108.31C78.5503 108.323 79.5616 102.937 82.74 103.739C82.752 103.742 82.7646 103.743 82.7767 103.741C82.7888 103.739 82.8 103.734 82.8093 103.727C82.8186 103.721 82.8258 103.712 82.8302 103.703C82.8346 103.693 82.8361 103.683 82.8345 103.673C82.8222 103.596 82.7623 103.54 82.6548 103.504C81.6435 103.166 80.4951 103.036 79.7783 103.955C77.8334 106.45 78.8966 109.441 82.1788 109.472C82.5209 109.476 82.7833 109.622 82.966 109.91C83.7829 111.195 82.9512 112.964 81.3583 112.962C80.6581 112.962 80.1654 112.657 79.8802 112.047C79.7999 111.874 79.7345 111.866 79.6838 112.023C79.4356 112.803 78.9627 113.403 78.265 113.824C78.1144 113.914 78.0063 113.942 77.9409 113.907Z" stroke="white" stroke-width="2"/>
<path d="M72.3283 90.5085L84.1661 90.6403C84.1903 90.6406 84.2144 90.6352 84.2362 90.6246C84.2581 90.6139 84.2772 90.5983 84.2921 90.5788C84.307 90.5594 84.3173 90.5368 84.3221 90.5126C84.3269 90.4885 84.3261 90.4636 84.3198 90.4398C83.1029 85.7913 77.3016 84.4472 73.812 87.4416C72.9328 88.1953 72.3524 89.1031 72.0709 90.165C72.0605 90.2053 72.0592 90.2475 72.0672 90.2883C72.0752 90.3292 72.0923 90.3676 72.1171 90.4007C72.1419 90.4338 72.1738 90.4607 72.2104 90.4793C72.247 90.498 72.2873 90.508 72.3283 90.5085Z" stroke="white" stroke-width="2"/>
<path d="M93.6791 106.808C94.5163 107.239 95.3844 107.376 96.2834 107.218C96.2954 107.217 96.3069 107.212 96.3172 107.206C96.3274 107.2 96.3362 107.191 96.3429 107.181C96.3495 107.171 96.3539 107.16 96.3558 107.148C96.3577 107.136 96.357 107.124 96.3538 107.113C96.0222 105.947 94.0718 104.846 93.5124 106.385C93.4842 106.464 93.4855 106.551 93.5162 106.628C93.5469 106.706 93.6048 106.77 93.6791 106.808Z" stroke="white" stroke-width="2"/>
<path d="M94.2686 108.405C93.6963 109.09 93.0461 109.979 93.0498 110.82C93.0535 111.72 93.8222 111.275 94.1964 110.991C95.3151 110.143 96.1128 109.05 96.5895 107.712C96.6475 107.55 96.5932 107.49 96.4265 107.532C95.454 107.785 94.9743 107.558 94.2686 108.405Z" stroke="white" stroke-width="2"/>
<path d="M75.607 113.447C76.7406 113.514 77.1036 112.778 77.2648 111.737C77.4031 110.841 77.5747 109.949 77.7797 109.062C77.7867 109.033 77.7873 109.003 77.7815 108.974C77.7758 108.946 77.7637 108.919 77.7464 108.897C77.4772 108.548 77.1975 108.317 76.9073 108.206C76.5974 108.087 76.3393 108.158 76.1331 108.418C75.5904 109.097 75.244 109.656 75.0754 110.528C74.905 111.416 74.7013 112.773 75.4403 113.382C75.4873 113.42 75.5457 113.443 75.607 113.447Z" stroke="white" stroke-width="2"/>
<path d="M81.7491 137.027C67.8295 136.136 55.1601 130.424 45.1635 120.7C34.4217 110.249 28.5186 97.4759 27.4542 82.3794C27.4159 81.8373 27.3992 80.3206 27.4042 77.8293C27.4264 66.8002 30.2011 56.6473 36.0431 47.2946C38.7202 43.01 41.8863 39.1176 45.5414 35.6176C57.7699 23.9109 73.3473 18.5421 90.2361 19.591C102.004 20.3212 112.516 24.2036 121.773 31.2383C128.074 36.026 133.534 42.2618 137.435 49.0861C138.524 50.9908 139.619 53.5007 140.365 55.3088C143.01 61.7173 144.467 68.2847 144.737 75.0112C144.827 77.2612 144.806 79.7494 144.674 82.4759C143.218 112.443 117.335 137.102 87.4281 137.098C85.5351 137.096 83.5199 137.141 81.7491 137.027ZM86.0834 136.116C100.309 136.431 114.182 131.083 124.645 121.563C135.953 111.277 142.638 98.0366 143.709 82.6541C143.824 81.0075 143.779 79.1919 143.779 77.4598C143.779 69.5403 142.179 62.0477 139.063 54.7835C138.198 52.7674 137.568 51.3955 137.174 50.6677C133.519 43.9177 128.265 37.7173 122.452 33.0223C111.993 24.5768 99.9049 20.3874 86.1871 20.4543C65.9495 20.2965 47.9993 30.4716 37.1229 47.4301C31.0642 56.8757 28.3525 67.216 28.3859 78.414C28.3908 80.3856 28.4081 81.6114 28.4377 82.0916C29.349 97.0174 35.6115 110.378 46.4508 120.572C57.2957 130.771 71.1209 136.366 86.0834 136.116Z" fill="black"/>
<path d="M86.1868 20.4542L86.1757 22.2234C67.2179 22.3181 49.8402 31.7116 39.4213 47.5433C38.1636 49.4554 36.817 51.6275 35.8575 53.612C17.6999 91.1566 44.7279 134.087 86.0849 134.389L86.0831 136.116C71.1206 136.366 57.2954 130.771 46.4505 120.572C35.6112 110.378 29.3487 97.0173 28.4374 82.0916C28.4078 81.6114 28.3905 80.3855 28.3856 78.414C28.3522 67.216 31.0639 56.8756 37.1226 47.4301C47.999 30.4715 65.9492 20.2964 86.1868 20.4542Z" fill="white"/>
<path d="M86.083 136.116L86.0849 134.389C88.1828 134.358 89.8758 134.281 91.1637 134.157C129.409 130.496 152.788 90.594 137.125 55.3087C136.381 53.6305 135.188 51.1002 134.078 49.2679C123.856 32.3855 105.908 22.3644 86.1756 22.2233L86.1867 20.4542C99.9045 20.3873 111.993 24.5767 122.452 33.0222C128.264 37.7172 133.519 43.9176 137.174 50.6676C137.567 51.3954 138.197 52.7673 139.063 54.7834C142.178 62.0476 143.779 69.5402 143.779 77.4597C143.779 79.1918 143.823 81.0074 143.708 82.654C142.638 98.0365 135.953 111.277 124.645 121.563C114.182 131.083 100.308 136.431 86.083 136.116Z" fill="white"/>
<path d="M86.1758 22.2234C105.908 22.3645 123.856 32.3855 134.079 49.2679C135.188 51.1003 136.381 53.6306 137.126 55.3088C152.788 90.5941 129.409 130.496 91.1639 134.157C89.876 134.281 88.183 134.358 86.0851 134.389C44.7281 134.087 17.7001 91.1566 35.8576 53.612C36.8171 51.6275 38.1637 49.4554 39.4214 47.5433C49.8403 31.7116 67.2181 22.3181 86.1758 22.2234ZM48.6195 118.597C59.2767 128.557 73.4477 133.864 88.0152 133.349C102.583 132.835 116.353 126.541 126.298 115.853C131.222 110.561 135.058 104.349 137.588 97.5722C140.117 90.7955 141.291 83.5865 141.041 76.357C140.792 69.1274 139.124 62.0188 136.133 55.4371C133.142 48.8554 128.887 42.9294 123.61 37.9974C112.953 28.037 98.7817 22.7303 84.2142 23.2449C69.6467 23.7594 55.8761 30.053 45.9318 40.7411C41.0078 46.0333 37.1715 52.2451 34.6417 59.0219C32.112 65.7986 30.9384 73.0075 31.1879 80.2371C31.4375 87.4666 33.1054 94.5752 36.0963 101.157C39.0872 107.739 43.3426 113.665 48.6195 118.597Z" fill="black"/>
<path d="M98.6342 73.3349C96.8208 71.2854 93.572 72.1579 91.8198 73.695C91.1141 74.3114 89.9657 75.7817 88.971 76.0211C88.8451 76.0521 88.813 76.01 88.8747 75.8949C90.2398 73.3497 93.1238 70.669 96.0948 71.0032C99.464 71.3819 100.768 73.4147 101.726 76.3999C102.29 78.1598 102.844 79.9234 103.387 81.6907C103.472 81.9679 103.654 82.1053 103.932 82.1028L104.795 82.0935C104.824 82.0929 104.853 82.0984 104.88 82.1096C104.907 82.1208 104.93 82.1375 104.949 82.1585C106.328 83.7365 102.848 84.1152 102.07 82.2346C100.968 79.5725 100.738 75.713 98.6342 73.3349Z" fill="white"/>
<path d="M68.7907 86.0068C68.4956 85.8571 68.4314 85.6386 68.5981 85.3515C69.9132 83.0854 70.743 80.5972 71.0875 77.8868C71.1566 77.3447 71.4629 77.0322 72.0062 76.9493C73.7066 76.6894 75.8311 76.9994 77.8075 76.565C80.245 76.0285 81.7676 75.4585 83.4605 73.9437C83.6791 73.7482 83.8958 73.6071 84.1107 73.5204C84.428 73.3917 84.5144 73.4827 84.37 73.7933C82.9178 76.9029 79.104 78.1355 75.9737 78.3713C74.8192 78.4579 73.6671 78.5706 72.5174 78.7092C72.4903 78.7125 72.4649 78.7239 72.4447 78.7419C72.4245 78.7598 72.4104 78.7834 72.4044 78.8094C71.9117 81.1275 71.1289 83.3391 70.0558 85.4443C69.7668 86.0124 69.426 86.328 68.7907 86.0068Z" fill="white"/>
<path d="M104.102 87.4821C102.676 85.0755 100.582 83.7356 97.7861 83.4258L104.102 87.4821ZM104.102 87.4821L102.829 87.4584C102.742 87.3581 102.656 87.2534 102.565 87.1438C102.527 87.0972 102.488 87.0497 102.447 87.0012C102.288 86.8092 102.113 86.6051 101.928 86.4305L101.927 86.4301C98.985 83.6565 94.1399 83.9035 91.6156 86.9937C89.9464 89.0366 89.8349 91.4405 90.7657 93.3983C91.6905 95.3436 93.6376 96.8388 96.0608 97.1295L96.0609 97.1295C98.3884 97.4081 100.404 96.7564 102.063 95.1782L103.525 95.1295C100.088 99.595 92.6923 99.4455 89.9695 94.241C89.9775 92.461 89.9761 90.6863 89.9652 88.917M104.102 87.4821L97.786 83.4258C94.6 83.0731 91.4889 84.704 89.9654 87.5016M89.9652 88.917C89.9652 88.9171 89.9652 88.9172 89.9652 88.9173L89.4652 88.9196L89.9652 88.9165C89.9652 88.9167 89.9652 88.9168 89.9652 88.917ZM89.9652 88.917C89.965 88.8576 89.9737 88.7827 89.9911 88.6692C89.9939 88.6512 89.9969 88.632 90.0001 88.6118C90.015 88.5172 90.0334 88.4007 90.0443 88.2843C90.0655 88.0588 90.0647 87.7865 89.9654 87.5016M89.9654 87.5016C89.9279 87.5705 89.8914 87.64 89.8558 87.7103L89.4097 87.4845L89.8423 87.2338C89.8943 87.3236 89.9346 87.4132 89.9654 87.5016Z" stroke="black"/>
<path d="M77.2907 99.1058L77.2908 99.1058C80.6296 99.4424 83.611 97.8805 85.2608 94.9779L83.9957 95.0006C80.6217 99.587 73.3157 98.9593 71.4976 93.1683L71.4974 93.1676C71.4615 93.0526 71.453 92.9307 71.4728 92.8118L71.966 92.8938L71.4728 92.8118C71.4926 92.6928 71.5401 92.58 71.6119 92.4825C71.6837 92.385 71.7777 92.3057 71.8864 92.2515C71.8864 92.2515 71.8864 92.2515 71.8864 92.2515L77.2907 99.1058ZM77.2907 99.1058C71.7728 98.5501 68.3168 92.7315 71.3312 87.8514L77.2907 99.1058ZM86.0613 92.2328C85.463 92.3066 85.1138 92.3373 84.9812 92.3348L84.9805 92.3348C80.7501 92.2618 76.5019 92.2073 72.2357 92.1714C72.2353 92.1714 72.2349 92.1714 72.2345 92.1714L86.0613 92.2328ZM86.0613 92.2328C86.1773 88.7076 84.2995 85.9798 81.0712 84.7358L86.0613 92.2328ZM72.3229 91.0086L72.3225 91.0086C72.2043 91.0072 72.0883 90.9785 71.9833 90.9249C71.8783 90.8713 71.7874 90.7945 71.7171 90.7007C71.6469 90.6071 71.599 90.4989 71.5767 90.3847C71.5543 90.2704 71.5578 90.1527 71.5869 90.0402L71.5877 90.037L71.5877 90.037C71.8966 88.8719 72.5349 87.8782 73.4865 87.0623L72.3229 91.0086ZM72.3229 91.0086L84.1594 91.1404L72.3229 91.0086ZM84.689 90.8832L84.689 90.8833C84.6272 90.9639 84.5474 91.0294 84.4553 91.0742L84.689 90.8832ZM84.689 90.8832C84.7508 90.8027 84.7929 90.7092 84.8126 90.6103M84.689 90.8832L84.8126 90.6103M84.8126 90.6103C84.8321 90.5119 84.8291 90.4103 84.8036 90.3133M84.8126 90.6103L84.8036 90.3133M84.8036 90.3133C83.4798 85.2564 77.2155 83.8627 73.4867 87.0622L84.8036 90.3133ZM71.3313 87.8512C73.3062 84.6566 77.5908 83.3967 81.0709 84.7357L71.3313 87.8512ZM85.9948 94.5222L85.9948 94.5222L85.9948 94.5222Z" stroke="black"/>
<path d="M86.4093 104.193C86.5052 104.332 86.6 104.469 86.6932 104.606C86.6127 104.58 86.5203 104.568 86.4177 104.582C86.321 104.596 86.2394 104.629 86.1714 104.672C86.1733 104.657 86.175 104.643 86.1765 104.629C86.2057 104.363 86.209 104.106 86.1805 103.863C86.2449 103.956 86.3093 104.049 86.3733 104.141C86.3853 104.159 86.3973 104.176 86.4093 104.193ZM88.1337 107.438C88.1145 107.334 88.0926 107.231 88.0682 107.128L88.121 107.449L88.1211 107.449C88.1269 107.456 88.133 107.463 88.1394 107.469C88.1375 107.459 88.1356 107.449 88.1337 107.438C88.1337 107.438 88.1337 107.438 88.1337 107.438ZM88.2239 107.543C88.2115 107.671 88.2086 107.8 88.2149 107.931C88.2116 107.936 88.2083 107.941 88.205 107.945L88.2239 107.543ZM85.945 102.95C85.9451 102.95 85.9449 102.951 85.9444 102.953C85.9447 102.951 85.945 102.95 85.945 102.95Z" fill="white" stroke="black"/>
<mask id="path-30-inside-1_212_2536" fill="white">
<path d="M88.7303 108.091C88.6908 107.77 88.7149 107.472 88.8026 107.194C89.0298 105.078 90.0473 103.639 91.8551 102.876C93.2035 102.308 94.4297 102.722 95.1187 104.001C95.2126 104.177 95.1922 104.319 95.0576 104.428C95.0382 104.443 95.0133 104.45 94.9877 104.448C94.962 104.445 94.9375 104.433 94.9187 104.413C93.7018 103.151 92.2255 103.472 91.1012 104.634C90.1763 105.59 89.8133 106.822 90.0121 108.331C90.164 109.487 91.355 109.899 92.3348 109.611C92.3878 109.596 92.4389 109.56 92.4811 109.509L93.9537 107.811C93.9734 107.788 93.988 107.761 93.9963 107.732C94.0046 107.703 94.0064 107.673 94.0016 107.644C93.9968 107.614 93.9855 107.587 93.9685 107.563C93.9516 107.539 93.9294 107.52 93.9037 107.506L93.2869 107.18C93.0967 107.078 93.0146 106.92 93.0405 106.706C93.1072 106.16 93.3276 105.694 93.8425 105.446C95.3392 104.727 96.9006 106.175 97.3525 107.493C97.3624 107.521 97.3791 107.545 97.4006 107.563C97.422 107.581 97.4472 107.591 97.4729 107.592C97.6014 107.599 97.7162 107.565 97.8175 107.49C97.8474 107.467 97.8785 107.451 97.9072 107.443C97.9358 107.435 97.9606 107.435 97.9786 107.443C98.0317 107.467 98.0644 107.519 98.0768 107.599C98.097 107.731 98.0674 107.867 97.9934 107.982L95.1132 112.441C95.0689 112.51 95.0413 112.589 95.0326 112.671C95.0239 112.754 95.0344 112.837 95.0632 112.916C95.2336 113.378 96.3227 112.864 96.6209 112.676C96.8074 112.559 96.9704 112.375 97.1099 112.125C97.6965 111.077 98.2885 110.033 98.8862 108.993C99.3956 108.108 99.8901 108.706 99.4456 109.404C99.0085 110.09 97.7156 112.038 97.7508 112.806C97.7518 112.834 97.7591 112.861 97.7722 112.885C97.7852 112.909 97.8037 112.93 97.8261 112.946C97.8485 112.961 97.8743 112.972 97.9014 112.976C97.9285 112.98 97.9562 112.978 97.9823 112.97C98.9862 112.646 99.695 112.051 100.109 111.186C100.131 111.137 100.137 111.082 100.125 111.03C100.113 110.978 100.084 110.931 100.042 110.898C99.2418 110.258 100.349 109.951 100.859 110.241C100.885 110.256 100.914 110.266 100.943 110.27C100.972 110.274 101 110.273 101.027 110.265C101.422 110.154 103.278 109.275 102.761 110.655C102.657 110.93 102.239 111.592 101.505 112.643C101.362 112.847 101.382 113.045 101.566 113.237C101.586 113.258 101.611 113.273 101.639 113.281C101.667 113.289 101.697 113.29 101.726 113.283C102.441 113.116 103.157 112.418 103.709 111.941C103.932 111.749 103.971 111.525 103.826 111.267C103.502 110.688 104.206 109.446 104.717 110.283C104.733 110.309 104.743 110.338 104.747 110.367C104.751 110.397 104.749 110.426 104.741 110.454L104.552 111.11C104.542 111.143 104.54 111.178 104.544 111.212C104.549 111.246 104.561 111.278 104.579 111.307C104.597 111.335 104.621 111.358 104.649 111.375C104.677 111.391 104.709 111.401 104.741 111.403C105.289 111.438 106.053 111.576 106.225 112.192C106.606 113.549 104.391 114.258 104.4 113.042C104.4 113.032 104.403 113.022 104.408 113.013C104.413 113.004 104.42 112.996 104.429 112.99C104.438 112.984 104.448 112.981 104.459 112.98C104.47 112.979 104.481 112.981 104.491 112.985C105.102 113.219 105.504 113.045 105.695 112.465C105.708 112.426 105.713 112.385 105.709 112.344C105.706 112.303 105.694 112.264 105.675 112.228C105.655 112.192 105.629 112.16 105.597 112.135C105.565 112.11 105.529 112.092 105.489 112.082L104.378 111.804C104.328 111.792 104.274 111.796 104.226 111.816C104.178 111.837 104.137 111.872 104.11 111.917C103.526 112.875 102.194 114.436 100.955 113.666C100.634 113.467 100.542 113.191 100.679 112.838C100.816 112.482 101.824 110.788 101.765 110.629C101.756 110.605 101.738 110.584 101.714 110.571C101.691 110.558 101.662 110.553 101.633 110.556C101.274 110.602 100.943 110.72 100.64 110.909C100.591 110.939 100.55 110.986 100.524 111.043C99.9111 112.308 99.0622 113.369 97.9768 114.227C97.3525 114.72 96.4079 114.778 96.5394 113.658C96.5434 113.623 96.5389 113.588 96.5262 113.555C96.5136 113.522 96.4932 113.493 96.4669 113.47C96.4405 113.446 96.4089 113.43 96.3748 113.421C96.3407 113.413 96.305 113.413 96.2708 113.421C95.6688 113.568 94.9076 113.898 94.3945 113.404C94.3513 113.362 94.3232 113.305 94.3149 113.243C94.2556 112.809 94.2932 112.43 94.4278 112.103C94.5143 111.895 94.4501 111.824 94.2352 111.889C92.8645 112.305 92.0607 111.743 92.3811 110.285C92.407 110.165 92.3651 110.132 92.2552 110.185C91.6828 110.46 91.0845 110.64 90.4844 110.309C89.6916 109.873 89.1786 109.192 88.9452 108.267C88.9357 108.231 88.9215 108.199 88.9042 108.174C88.8869 108.149 88.8671 108.133 88.847 108.126L88.7303 108.091ZM93.6795 106.808C94.5168 107.239 95.3848 107.376 96.2838 107.219C96.2958 107.217 96.3073 107.213 96.3176 107.206C96.3279 107.2 96.3366 107.191 96.3433 107.181C96.35 107.171 96.3544 107.16 96.3563 107.148C96.3581 107.136 96.3574 107.124 96.3542 107.113C96.0226 105.947 94.0722 104.846 93.5128 106.385C93.4846 106.464 93.486 106.551 93.5167 106.629C93.5473 106.706 93.6053 106.77 93.6795 106.808ZM94.2686 108.405C93.6962 109.09 93.0461 109.979 93.0498 110.82C93.0535 111.72 93.8222 111.275 94.1963 110.991C95.3151 110.143 96.1128 109.05 96.5894 107.712C96.6474 107.55 96.5931 107.49 96.4264 107.532C95.454 107.785 94.9743 107.558 94.2686 108.405Z"/>
</mask>
<path d="M88.7303 108.091C88.6908 107.77 88.7149 107.472 88.8026 107.194C89.0298 105.078 90.0473 103.639 91.8551 102.876C93.2035 102.308 94.4297 102.722 95.1187 104.001C95.2126 104.177 95.1922 104.319 95.0576 104.428C95.0382 104.443 95.0133 104.45 94.9877 104.448C94.962 104.445 94.9375 104.433 94.9187 104.413C93.7018 103.151 92.2255 103.472 91.1012 104.634C90.1763 105.59 89.8133 106.822 90.0121 108.331C90.164 109.487 91.355 109.899 92.3348 109.611C92.3878 109.596 92.4389 109.56 92.4811 109.509L93.9537 107.811C93.9734 107.788 93.988 107.761 93.9963 107.732C94.0046 107.703 94.0064 107.673 94.0016 107.644C93.9968 107.614 93.9855 107.587 93.9685 107.563C93.9516 107.539 93.9294 107.52 93.9037 107.506L93.2869 107.18C93.0967 107.078 93.0146 106.92 93.0405 106.706C93.1072 106.16 93.3276 105.694 93.8425 105.446C95.3392 104.727 96.9006 106.175 97.3525 107.493C97.3624 107.521 97.3791 107.545 97.4006 107.563C97.422 107.581 97.4472 107.591 97.4729 107.592C97.6014 107.599 97.7162 107.565 97.8175 107.49C97.8474 107.467 97.8785 107.451 97.9072 107.443C97.9358 107.435 97.9606 107.435 97.9786 107.443C98.0317 107.467 98.0644 107.519 98.0768 107.599C98.097 107.731 98.0674 107.867 97.9934 107.982L95.1132 112.441C95.0689 112.51 95.0413 112.589 95.0326 112.671C95.0239 112.754 95.0344 112.837 95.0632 112.916C95.2336 113.378 96.3227 112.864 96.6209 112.676C96.8074 112.559 96.9704 112.375 97.1099 112.125C97.6965 111.077 98.2885 110.033 98.8862 108.993C99.3956 108.108 99.8901 108.706 99.4456 109.404C99.0085 110.09 97.7156 112.038 97.7508 112.806C97.7518 112.834 97.7591 112.861 97.7722 112.885C97.7852 112.909 97.8037 112.93 97.8261 112.946C97.8485 112.961 97.8743 112.972 97.9014 112.976C97.9285 112.98 97.9562 112.978 97.9823 112.97C98.9862 112.646 99.695 112.051 100.109 111.186C100.131 111.137 100.137 111.082 100.125 111.03C100.113 110.978 100.084 110.931 100.042 110.898C99.2418 110.258 100.349 109.951 100.859 110.241C100.885 110.256 100.914 110.266 100.943 110.27C100.972 110.274 101 110.273 101.027 110.265C101.422 110.154 103.278 109.275 102.761 110.655C102.657 110.93 102.239 111.592 101.505 112.643C101.362 112.847 101.382 113.045 101.566 113.237C101.586 113.258 101.611 113.273 101.639 113.281C101.667 113.289 101.697 113.29 101.726 113.283C102.441 113.116 103.157 112.418 103.709 111.941C103.932 111.749 103.971 111.525 103.826 111.267C103.502 110.688 104.206 109.446 104.717 110.283C104.733 110.309 104.743 110.338 104.747 110.367C104.751 110.397 104.749 110.426 104.741 110.454L104.552 111.11C104.542 111.143 104.54 111.178 104.544 111.212C104.549 111.246 104.561 111.278 104.579 111.307C104.597 111.335 104.621 111.358 104.649 111.375C104.677 111.391 104.709 111.401 104.741 111.403C105.289 111.438 106.053 111.576 106.225 112.192C106.606 113.549 104.391 114.258 104.4 113.042C104.4 113.032 104.403 113.022 104.408 113.013C104.413 113.004 104.42 112.996 104.429 112.99C104.438 112.984 104.448 112.981 104.459 112.98C104.47 112.979 104.481 112.981 104.491 112.985C105.102 113.219 105.504 113.045 105.695 112.465C105.708 112.426 105.713 112.385 105.709 112.344C105.706 112.303 105.694 112.264 105.675 112.228C105.655 112.192 105.629 112.16 105.597 112.135C105.565 112.11 105.529 112.092 105.489 112.082L104.378 111.804C104.328 111.792 104.274 111.796 104.226 111.816C104.178 111.837 104.137 111.872 104.11 111.917C103.526 112.875 102.194 114.436 100.955 113.666C100.634 113.467 100.542 113.191 100.679 112.838C100.816 112.482 101.824 110.788 101.765 110.629C101.756 110.605 101.738 110.584 101.714 110.571C101.691 110.558 101.662 110.553 101.633 110.556C101.274 110.602 100.943 110.72 100.64 110.909C100.591 110.939 100.55 110.986 100.524 111.043C99.9111 112.308 99.0622 113.369 97.9768 114.227C97.3525 114.72 96.4079 114.778 96.5394 113.658C96.5434 113.623 96.5389 113.588 96.5262 113.555C96.5136 113.522 96.4932 113.493 96.4669 113.47C96.4405 113.446 96.4089 113.43 96.3748 113.421C96.3407 113.413 96.305 113.413 96.2708 113.421C95.6688 113.568 94.9076 113.898 94.3945 113.404C94.3513 113.362 94.3232 113.305 94.3149 113.243C94.2556 112.809 94.2932 112.43 94.4278 112.103C94.5143 111.895 94.4501 111.824 94.2352 111.889C92.8645 112.305 92.0607 111.743 92.3811 110.285C92.407 110.165 92.3651 110.132 92.2552 110.185C91.6828 110.46 91.0845 110.64 90.4844 110.309C89.6916 109.873 89.1786 109.192 88.9452 108.267C88.9357 108.231 88.9215 108.199 88.9042 108.174C88.8869 108.149 88.8671 108.133 88.847 108.126L88.7303 108.091ZM93.6795 106.808C94.5168 107.239 95.3848 107.376 96.2838 107.219C96.2958 107.217 96.3073 107.213 96.3176 107.206C96.3279 107.2 96.3366 107.191 96.3433 107.181C96.35 107.171 96.3544 107.16 96.3563 107.148C96.3581 107.136 96.3574 107.124 96.3542 107.113C96.0226 105.947 94.0722 104.846 93.5128 106.385C93.4846 106.464 93.486 106.551 93.5167 106.629C93.5473 106.706 93.6053 106.77 93.6795 106.808ZM94.2686 108.405C93.6962 109.09 93.0461 109.979 93.0498 110.82C93.0535 111.72 93.8222 111.275 94.1963 110.991C95.3151 110.143 96.1128 109.05 96.5894 107.712C96.6474 107.55 96.5931 107.49 96.4264 107.532C95.454 107.785 94.9743 107.558 94.2686 108.405Z" fill="white" stroke="black" stroke-width="2" mask="url(#path-30-inside-1_212_2536)"/>
<path d="M70.8819 112.292L70.9894 112.296L73.0917 110.267C71.9099 109.305 70.9153 111.423 70.8819 112.292ZM70.8819 112.292C70.869 112.637 70.8395 112.925 70.7833 113.186C70.8553 113.133 70.9362 113.091 71.0231 113.063C71.0704 113.047 71.1187 113.036 71.1674 113.03C71.165 113.022 71.1626 113.015 71.1604 113.007C71.1276 112.893 71.1236 112.772 71.1487 112.656L71.358 112.701L71.1487 112.656C71.1554 112.624 71.1642 112.594 71.175 112.564C71.1679 112.557 71.1609 112.551 71.154 112.544C71.0812 112.475 71.0251 112.39 70.9895 112.296L70.8819 112.292ZM79.6838 112.023C79.7345 111.866 79.7999 111.874 79.8802 112.047C79.8873 112.062 79.8946 112.077 79.902 112.092L79.8314 112.07L79.8311 112.07L79.6838 112.023ZM79.6838 112.023C79.6789 112.038 79.6738 112.054 79.6687 112.069C79.7126 112.07 79.7559 112.075 79.7976 112.085C79.7978 112.085 79.798 112.085 79.7981 112.085C79.8308 112.093 79.8625 112.104 79.8931 112.117L79.8931 112.117C79.9027 112.122 79.9123 112.126 79.9217 112.131C79.9152 112.118 79.9088 112.106 79.9025 112.093L79.8306 112.07L79.8304 112.07L79.6838 112.023ZM78.4176 114.31C77.8813 114.875 77.2243 114.621 77.1537 113.768L78.4176 114.31ZM77.5877 113.429C77.5428 113.31 77.4689 113.191 77.3478 113.097C77.5777 112.718 77.6899 112.259 77.7589 111.813L77.7589 111.813C77.8953 110.93 78.0645 110.051 78.2665 109.176L77.5877 113.429ZM74.4253 112.222C74.3866 112.187 74.343 112.157 74.2951 112.132C74.337 112.054 74.3768 111.974 74.4141 111.893C74.4139 111.955 74.4148 112.017 74.4172 112.079C74.419 112.126 74.4217 112.174 74.4253 112.222ZM83.3175 112.469C83.8797 111.675 83.9642 110.548 83.388 109.642C83.1144 109.211 82.695 108.978 82.1842 108.972L82.1836 108.972C81.3743 108.964 80.7446 108.761 80.2841 108.441C80.6439 108.677 81.0944 108.812 81.6271 108.81L81.6277 108.81C81.9708 108.808 82.233 108.809 82.4163 108.813C82.5084 108.814 82.5766 108.817 82.6234 108.82C82.6399 108.821 82.6513 108.821 82.6585 108.822C83.0197 108.922 83.3136 109.184 83.5463 109.569C83.7846 109.964 83.9349 110.453 84.0076 110.909C84.0527 111.198 83.9792 111.387 83.7556 111.837C83.6331 112.084 83.4844 112.294 83.3175 112.469ZM82.6326 108.815L82.6374 108.816C82.6359 108.816 82.6343 108.816 82.6326 108.815ZM81.3577 113.462C81.3579 113.462 81.3581 113.462 81.3583 113.462V113.076C81.3582 113.076 81.3582 113.076 81.3581 113.076L81.3577 113.462ZM82.6536 103.507L82.7598 103.657L82.6536 103.507Z" stroke="black"/>
</g>
<defs>
<filter id="filter0_d_212_2536" x="-4" y="0" width="181" height="158" filterUnits="userSpaceOnUse" color-interpolation-filters="sRGB">
<feFlood flood-opacity="0" result="BackgroundImageFix"/>
<feColorMatrix in="SourceAlpha" type="matrix" values="0 0 0 0 0 0 0 0 0 0 0 0 0 0 0 0 0 0 127 0" result="hardAlpha"/>
<feOffset dy="4"/>
<feGaussianBlur stdDeviation="2"/>
<feComposite in2="hardAlpha" operator="out"/>
<feColorMatrix type="matrix" values="0 0 0 0 0 0 0 0 0 0 0 0 0 0 0 0 0 0 0.25 0"/>
<feBlend mode="normal" in2="BackgroundImageFix" result="effect1_dropShadow_212_2536"/>
<feBlend mode="normal" in="SourceGraphic" in2="effect1_dropShadow_212_2536" result="shape"/>
</filter>
</defs>
</svg>
